# xmcd
#
# Track frame offsets: 
#        150
#        12513
#        22596
#        32844
#        43565
#        54569
#        64576
#        76232
#        86173
#        97596
#        105781
#        116049
#        124630
#        132811
#        142538
#        151415
#        162294
#        171352
#
# Disc length: 2445 seconds
#
# Revision: 6
# Processed by: cddbd v1.5.2PL0 Copyright (c) Steve Scherf et al.
# Submitted via: ExactAudioCopy v1.0b3
#
DISCID=cd098b12
DTITLE=Cash, Johnny - Walking The Line - The Legendary Sun Recordings 
DTITLE=[Disc 1]
DYEAR=2005
DGENRE=Country
TTITLE0=I Walk The Line
TTITLE1=Get Rhythm
TTITLE2=There You Go
TTITLE3=Train Of Love
TTITLE4=Cry! Cry! Cry!
TTITLE5=Hey Porter!
TTITLE6=So Doggone Lonesome
TTITLE7=Ballad Of A Teenage Queen
TTITLE8=Big River
TTITLE9=Guess Things Happen That Way
TTITLE10=The Ways Of A Woman In Love
TTITLE11=I Forgot To Remember To Forget
TTITLE12=Sugartime
TTITLE13=It's Just About Time
TTITLE14=Katy Too
TTITLE15=Belshazzar
TTITLE16=Life Goes On
TTITLE17=You're The Nearest Thing To Heaven
EXTD=YEAR: 2005
EXTT0=
EXTT1=
EXTT2=
EXTT3=
EXTT4=
EXTT5=
EXTT6=
EXTT7=
EXTT8=
EXTT9=
EXTT10=
EXTT11=
EXTT12=
EXTT13=
EXTT14=
EXTT15=
EXTT16=
EXTT17=
PLAYORDER=
